<?xml version="1.0" encoding="UTF-8" standalone="no"?>
<!-- Created with Inkscape (http://www.inkscape.org/) -->

<svg
   xmlns:dc="http://purl.org/dc/elements/1.1/"
   xmlns:cc="http://creativecommons.org/ns#"
   xmlns:rdf="http://www.w3.org/1999/02/22-rdf-syntax-ns#"
   xmlns:svg="http://www.w3.org/2000/svg"
   xmlns="http://www.w3.org/2000/svg"
   xmlns:sodipodi="http://sodipodi.sourceforge.net/DTD/sodipodi-0.dtd"
   xmlns:inkscape="http://www.inkscape.org/namespaces/inkscape"
   width="310"
   height="425"
   id="svg2"
   version="1.1"
   inkscape:version="0.48.4 r9939"
   sodipodi:docname="blason.png">
  <defs
     id="defs4" />
  <sodipodi:namedview
     id="base"
     pagecolor="#ffffff"
     bordercolor="#666666"
     borderopacity="1.0"
     inkscape:pageopacity="0.0"
     inkscape:pageshadow="2"
     inkscape:zoom="0.35"
     inkscape:cx="375"
     inkscape:cy="520"
     inkscape:document-units="px"
     inkscape:current-layer="layer1"
     showgrid="false"
     inkscape:window-width="1280"
     inkscape:window-height="938"
     inkscape:window-x="-4"
     inkscape:window-y="-4"
     inkscape:window-maximized="1" />
  <metadata
     id="metadata7">
    <rdf:RDF>
      <cc:Work
         rdf:about="">
        <dc:format>image/svg+xml</dc:format>
        <dc:type
           rdf:resource="http://purl.org/dc/dcmitype/StillImage" />
        <dc:title></dc:title>
      </cc:Work>
    </rdf:RDF>
  </metadata>
  <g
     inkscape:label="Calque 1"
     inkscape:groupmode="layer"
     id="layer1"
     transform="translate(0,-627.36218)">
    <path
       inkscape:connector-curvature="0"
       id="path3028"
       d="m 101.87261,1029.0059 c -50.726914,-10.9232 -65.900204,-17.1554 -79.405084,-32.61446 -9.21511,-10.5485 -9.55073,-16.95943 -9.55073,-182.432 l 0,-171.4993 145.138434,0 145.13844,0 0,166.65288 c 0,143.85194 -1.03547,168.6594 -7.5682,181.31872 -13.47974,26.12126 -19.53372,28.22086 -130.54742,45.27486 -10.30015,1.5823 -38.7426,-1.433 -63.20544,-6.7007 z m 122.92064,-16.7809 c 33.22844,-4.4527 59.11811,-16.73456 59.52575,-28.23876 0.0809,-2.28369 -5.22665,-6.4909 -11.79461,-9.34937 -9.21073,-4.00864 -16.12774,-2.75266 -30.24573,5.492 -10.0672,5.87907 -22.07492,10.65817 -26.68382,10.62027 -10.03726,-0.083 -57.86216,-25.69738 -49.11381,-26.30512 3.34667,-0.23249 11.77406,2.88934 18.72754,6.93738 6.95347,4.04804 17.38309,9.03397 23.17692,11.07985 9.92201,3.50359 10.53424,2.21069 10.53424,-22.24564 0,-33.59443 -9.66996,-49.84376 -29.52726,-49.61738 -27.33402,0.31163 -31.33724,8.49542 -31.33724,64.06271 l 0,49.65306 15.21612,-3.612 c 8.36887,-1.9866 31.55373,-5.8013 51.5219,-8.477 z M 167.419,990.81804 c -3.86256,-2.8573 -4.91599,-5.1952 -2.34095,-5.1952 2.57504,0 7.84216,2.3379 11.70471,5.1952 3.86256,2.8574 4.91598,5.1953 2.34095,5.1953 -2.57504,0 -7.84216,-2.3379 -11.70471,-5.1953 z m -91.296754,5.3594 c -1.59147,-2.9476 -5.40279,-5.3224 -8.46962,-5.2773 -3.35043,0.049 -2.77296,2.1557 1.44679,5.2773 8.99448,6.65376 10.61526,6.65376 7.02283,0 z m 58.523554,0 c 3.86255,-2.8574 4.91598,-5.1952 2.34094,-5.1952 -2.57504,0 -7.84215,2.3378 -11.70471,5.1952 -3.86255,2.8574 -4.91598,5.19516 -2.34094,5.19516 2.57503,0 7.84215,-2.33776 11.70471,-5.19516 z m -4.68189,-18.75774 c 25.96916,-15.91792 22.64454,-17.14975 -6.48164,-2.40156 -11.94468,6.04825 -23.800154,9.5235 -26.345514,7.72273 -6.7592,-4.78189 -5.65367,-32.33168 2.15601,-53.72748 5.683734,-15.57147 9.150444,-18.5856 21.376274,-18.5856 8.02579,0 18.66753,2.49656 23.64832,5.54792 4.98079,3.05135 9.05598,4.31914 9.05598,2.8173 0,-4.00846 -24.95927,-18.10605 -30.43225,-17.18886 -7.4791,1.25338 -7.99799,-19.75723 -0.76748,-31.07639 6.40743,-10.03064 6.9893,-9.87576 19.10119,5.08428 8.87575,10.96288 11.50284,12.41777 9.07423,5.02533 -1.88003,-5.7226 -6.50293,-13.05241 -10.27311,-16.28846 -5.87592,-5.04346 -5.41588,-7.53095 3.22127,-17.4179 10.98053,-12.5694 12.79597,-27.85884 5.22954,-44.04261 -7.75292,-16.58266 -16.14968,-12.23264 -31.71526,16.43039 -10.8192,19.92287 -17.396174,26.79677 -25.639314,26.79677 -9.60547,0 -10.81727,-2.10559 -9.06719,-15.75501 2.66695,-20.8004 14.89799,-32.67861 42.003724,-40.79201 17.52456,-5.24552 20.37257,-7.5227 13.42833,-10.73686 -5.09177,-2.35674 -12.6982,-1.30226 -18.01298,2.49716 -10.62762,7.59744 -15.33906,4.55436 -11.35394,-7.33341 1.52481,-4.54859 8.22997,-8.27017 14.90036,-8.27017 6.89309,0 10.879,-2.31329 9.2344,-5.35935 -4.78995,-8.87176 -18.63827,-6.06808 -30.02899,6.07955 -11.113344,11.85183 -51.903994,20.99147 -51.903994,11.62971 0,-2.81718 5.43685,-10.96888 12.0819,-18.11489 9.02424,-9.70457 17.31843,-12.99275 32.7732,-12.99275 11.380204,0 20.691284,-0.92298 20.691284,-2.05106 0,-2.19156 -14.3601,-17.08456 -31.623744,-32.79727 -5.8054,-5.28385 -11.86258,-17.08944 -13.46042,-26.23464 -2.39352,-13.69929 -1.41227,-16.62765 5.57163,-16.62765 10.04539,0 30.148764,20.278 30.148764,30.41065 0,3.90765 2.04072,7.10482 4.53494,7.10482 2.49423,0 3.32224,-3.61757 1.84003,-8.03903 -1.4822,-4.42147 -0.42876,-8.03903 2.34095,-8.03903 2.76972,0 3.90492,-3.37362 2.52267,-7.49693 -1.38225,-4.12331 -0.0243,-9.25771 3.01765,-11.40979 4.14696,-2.93382 4.72282,4.05645 2.30151,27.93742 -2.46774,24.33883 -1.67537,33.32658 3.35985,38.11012 5.56026,5.28233 6.26775,1.82295 4.53075,-22.15385 -1.60041,-22.09141 -0.24098,-30.49409 6.10955,-37.76355 13.38952,-15.32699 18.92869,-2.77829 12.08471,27.37732 -10.67952,47.0556 -10.98477,52.6988 -3.24814,60.04871 6.56146,6.2335 7.09399,5.1897 4.6089,-9.03374 -1.63577,-9.3623 -0.65647,-17.60494 2.34381,-19.72752 6.19859,-4.38528 6.04962,-6.68774 5.16953,79.90511 l -0.70658,69.52009 10.39034,-10.56721 10.39032,-10.56721 -5.38832,11.76006 c -2.96357,6.46804 -7.48384,13.24257 -10.04502,15.05451 -5.91584,4.18524 -6.12336,24.09928 -0.25114,24.09928 2.42307,0 5.70768,-2.41171 7.29914,-5.35935 1.59146,-2.94765 6.90879,-5.35935 11.81629,-5.35935 4.90751,0 10.85475,-4.22049 13.21611,-9.37887 5.1242,-11.19381 -1.71834,-35.71721 -8.6062,-30.8443 -2.59682,1.83715 -4.72149,0.61397 -4.72149,-2.71818 0,-3.33215 -3.16027,-9.67601 -7.02283,-14.09748 -9.2878,-10.63175 -8.97772,-41.61925 0.50664,-50.62955 6.39734,-6.07757 8.50924,-5.61931 14.04566,3.04778 3.5839,5.6105 6.51619,13.35752 6.51619,17.21561 0,3.85807 2.10684,7.01469 4.68188,7.01469 2.57504,0 4.68189,3.38164 4.68189,7.51475 0,7.15566 27.38363,21.87855 31.63698,17.00973 4.24544,-4.85975 -4.40947,-34.28339 -13.29622,-45.20246 -5.10647,-6.27426 -17.64268,-12.93768 -27.85827,-14.80759 -10.21559,-1.86991 -18.57381,-5.50331 -18.57381,-8.07422 0,-6.12208 5.92995,-5.90354 21.29811,0.7849 10.68133,4.64867 12.11696,4.18569 9.66856,-3.118 -1.58144,-4.71751 -2.87535,-9.5859 -2.87535,-10.81864 0,-1.23274 -5.79384,-2.31469 -12.87519,-2.40432 -11.24606,-0.14235 -11.80756,-0.87397 -4.43759,-5.78215 6.65998,-4.43536 11.90299,-2.59353 24.88645,8.7424 9.82851,8.58131 22.86302,14.5697 32.3854,14.87868 19.49527,0.63258 23.1193,-2.9267 16.7818,-16.48191 -5.62866,-12.03911 -23.84662,-21.36818 -47.3771,-24.26092 -14.49749,-1.78226 -13.95774,-2.12284 4.68188,-2.95427 24.96524,-1.11357 38.6957,-8.85061 28.74351,-16.1968 -3.50385,-2.58636 -10.55417,-3.45015 -15.66737,-1.91953 -8.02031,2.40085 -7.62773,0.87243 2.85921,-11.13198 14.489,-16.58555 16.59065,-41.1989 3.51783,-41.1989 -12.27699,0 -28.40197,21.83557 -42.54569,57.61304 -2.62187,6.6322 -5.3459,12.05423 -6.05339,12.04894 -0.70749,-0.005 -1.56391,-13.39819 -1.90315,-29.76201 -0.46234,-22.30096 -2.80747,-31.59443 -9.36377,-37.10726 -7.57379,-6.36837 -9.13835,-6.15036 -11.66501,1.62542 -3.70023,11.38745 -0.71927,41.36485 6.35524,63.91012 4.20578,13.40312 4.16966,18.89659 -0.15684,23.84913 -4.37382,5.00672 -5.6213,3.29366 -5.6213,-7.71925 0,-7.78468 -2.10685,-15.64447 -4.68189,-17.46622 -2.57504,-1.82175 -4.68188,-20.12189 -4.68188,-40.667 l 0,-37.35473 62.03497,1.4954 62.03498,1.49539 2.4623,136.6635 2.4623,136.6635 1.04911,-139.83075 1.04912,-139.83075 -99.07448,-3.53194 C 135.58256,649.40887 74.483966,647.8195 54.298866,647.8195 l -36.70019,0 0,155.77356 c 0,92.05203 1.88707,159.80979 4.61312,165.64052 3.66101,7.8305 8.34606,9.29381 22.69989,7.08998 11.66903,-1.79162 22.90704,0.21111 31.67149,5.64419 18.48406,11.45829 28.685314,10.58909 53.380734,-4.54805 z M 73.916886,733.77848 c -3.78798,-2.74224 -5.46623,-6.6125 -3.72945,-8.6006 4.76488,-5.45435 27.81011,2.56109 24.57752,8.54838 -3.51854,6.51691 -11.88913,6.53787 -20.84807,0.052 z M 201.56321,683.99513 c -1.35444,-8.10602 -4.56958,-14.73822 -7.14476,-14.73822 -2.57517,0 -3.41176,5.42634 -1.85907,12.05854 1.55269,6.6322 2.9159,16.88196 3.02937,22.77725 0.16775,8.71683 0.9749,9.2173 4.32169,2.67968 2.26346,-4.42147 3.00721,-14.67123 1.65277,-22.77725 z"
       style="fill:#409c1e" />
  </g>
</svg>
